<?xml version="1.0" standalone="no"?><!DOCTYPE svg PUBLIC "-//W3C//DTD SVG 1.1//EN" "http://www.w3.org/Graphics/SVG/1.1/DTD/svg11.dtd"><svg t="1653222536739" class="icon" viewBox="0 0 1024 1024" version="1.1" xmlns="http://www.w3.org/2000/svg" p-id="26270" width="20" height="20" xmlns:xlink="http://www.w3.org/1999/xlink"><defs><style type="text/css">@font-face { font-family: feedback-iconfont; src: url("//at.alicdn.com/t/font_1031158_u69w8yhxdu.woff2?t=1630033759944") format("woff2"), url("//at.alicdn.com/t/font_1031158_u69w8yhxdu.woff?t=1630033759944") format("woff"), url("//at.alicdn.com/t/font_1031158_u69w8yhxdu.ttf?t=1630033759944") format("truetype"); }
</style></defs><path d="M159.665 220.416c0-24.125 19.608-43.736 43.735-43.736h218.784v-43.789c0-24.125 19.61-43.735 43.846-43.735h87.467c24.183 0 43.793 19.61 43.793 43.735v43.789h218.781c24.183 0 43.792 19.61 43.792 43.736v43.791H159.665v-43.791z" fill="#00A0E9" p-id="26271"></path><path d="M203.4 307.942v583.534c0 24.127 19.608 43.735 43.789 43.735h525.094c24.238 0 43.789-19.608 43.789-43.735V307.941H203.4z m175.049 496.01c0 24.125-19.608 43.732-43.733 43.732-24.183 0-43.791-19.607-43.791-43.732V439.255c0-24.181 19.608-43.734 43.791-43.734 24.125 0 43.733 19.553 43.733 43.734v364.697z m175.048 0c0 24.125-19.551 43.732-43.733 43.732-24.237 0-43.734-19.607-43.734-43.732V439.255c0-24.181 19.498-43.734 43.734-43.734 24.182 0 43.733 19.553 43.733 43.734v364.697z m175.051 0c0 24.125-19.609 43.732-43.788 43.732-24.127 0-43.737-19.607-43.737-43.732V439.255c0-24.181 19.61-43.734 43.737-43.734 24.179 0 43.788 19.553 43.788 43.734v364.697z" fill="#036EB8" p-id="26272"></path></svg>