<?xml version="1.0" standalone="no"?><!DOCTYPE svg PUBLIC "-//W3C//DTD SVG 1.1//EN" "http://www.w3.org/Graphics/SVG/1.1/DTD/svg11.dtd"><svg t="1652356637928" class="icon" viewBox="0 0 1027 1024" version="1.1" xmlns="http://www.w3.org/2000/svg" p-id="27868" width="16.046875" height="16" xmlns:xlink="http://www.w3.org/1999/xlink"><defs><style type="text/css">@font-face { font-family: feedback-iconfont; src: url("//at.alicdn.com/t/font_1031158_u69w8yhxdu.woff2?t=1630033759944") format("woff2"), url("//at.alicdn.com/t/font_1031158_u69w8yhxdu.woff?t=1630033759944") format("woff"), url("//at.alicdn.com/t/font_1031158_u69w8yhxdu.ttf?t=1630033759944") format("truetype"); }
</style></defs><path d="M972.8 921.6H102.4v-179.712l283.648-222.208 167.936 131.584a51.2 51.2 0 0 0 62.976 0l387.584-303.616a51.2 51.2 0 1 0-62.976-80.384l-358.4 279.04-165.888-132.096a51.2 51.2 0 0 0-62.976 0L102.4 611.84V51.2a51.2 51.2 0 0 0-102.4 0v921.6a51.2 51.2 0 0 0 51.2 51.2h921.6a51.2 51.2 0 0 0 0-102.4z" fill="#bfbfbf" p-id="27869"></path></svg>