<?xml version="1.0" standalone="no"?><!DOCTYPE svg PUBLIC "-//W3C//DTD SVG 1.1//EN" "http://www.w3.org/Graphics/SVG/1.1/DTD/svg11.dtd"><svg t="1653101736475" class="icon" viewBox="0 0 1024 1024" version="1.1" xmlns="http://www.w3.org/2000/svg" p-id="17921" xmlns:xlink="http://www.w3.org/1999/xlink" width="24" height="24"><defs><style type="text/css">@font-face { font-family: feedback-iconfont; src: url("//at.alicdn.com/t/font_1031158_u69w8yhxdu.woff2?t=1630033759944") format("woff2"), url("//at.alicdn.com/t/font_1031158_u69w8yhxdu.woff?t=1630033759944") format("woff"), url("//at.alicdn.com/t/font_1031158_u69w8yhxdu.ttf?t=1630033759944") format("truetype"); }
</style></defs><path d="M798.1 798.6H226V499.4c-9.7 7.4-21.5 11.4-33.9 11.5h-0.2c-15 0-29.2-5.8-39.8-16.4l-90.3-89.8c-22.1-22-23.5-57.7-3-81.4l117.2-135 336.3 207.9 325.2-219.9L966 325.5c9.3 10.8 14.2 24.6 13.7 38.8-0.5 14.2-6.3 27.7-16.3 37.8L872.2 494c-10.7 10.8-24.9 16.7-40.1 16.7-12.4 0-24.3-4-34-11.4v299.3z m-512.1-60h452.1v-247c0-31.2 25.4-56.5 56.7-56.5 13.8 0 26.9 5 37.3 14.3l86.4-87.1L826.9 256l-283 191.1c-18.4 12.4-42.5 12.9-61.3 1.2L187.8 266.1l-83.5 96.2 87.6 87.1C208 435 230.8 431 251 439.3c21.3 8.7 35 29.2 35 52.2v247.1z m548.6-286.8z m86.1-91.9z" fill="#0A7E07" p-id="17922"></path><path d="M256 768.6h512.1v80.3c0 14.6-11.8 26.5-26.5 26.5H282.4c-14.6 0-26.5-11.8-26.5-26.5v-80.3z" fill="#2BAF2B" p-id="17923"></path><path d="M741.6 905.4H282.4c-31.1 0-56.5-25.3-56.5-56.5V738.6H798v110.3c0.1 31.1-25.3 56.5-56.4 56.5z m-455.6-60h452.1v-46.7H286v46.7z" fill="#0A7E07" p-id="17924"></path><path d="M498.4 422.9L181.9 227.2l59.4-68.4c8.5-9.8 22.9-12 33.9-5.2L497.4 291c8.5 5.3 19.2 5.3 27.8 0l223.7-137.5c11.1-6.8 25.4-4.6 33.9 5.3l49.3 57.2-305 206.2c-8.6 5.9-19.9 6.1-28.7 0.7z" fill="#2BAF2B" p-id="17925"></path><path d="M512.3 456.8c-10.3 0-20.6-2.8-29.7-8.4L136.1 234.2l82.5-95c18.2-21 48.7-25.6 72.3-11l220.4 136.2L733.2 128c23.7-14.6 54.1-9.9 72.3 11.2l71.3 82.8-332.9 225.1c-9.5 6.5-20.6 9.7-31.6 9.7z m1.8-59.5zM227.6 220.2l284.6 175.9 275.1-186-25.3-29.4-221.1 135.9c-18.3 11.2-41 11.2-59.3-0.1L261.9 180.7l-34.3 39.5z" fill="#0A7E07" p-id="17926"></path></svg>