<?xml version="1.0" standalone="no"?><!DOCTYPE svg PUBLIC "-//W3C//DTD SVG 1.1//EN" "http://www.w3.org/Graphics/SVG/1.1/DTD/svg11.dtd"><svg t="1653142170459" class="icon" viewBox="0 0 1024 1024" version="1.1" xmlns="http://www.w3.org/2000/svg" p-id="8207" width="24" height="24" xmlns:xlink="http://www.w3.org/1999/xlink"><defs><style type="text/css">@font-face { font-family: feedback-iconfont; src: url("//at.alicdn.com/t/font_1031158_u69w8yhxdu.woff2?t=1630033759944") format("woff2"), url("//at.alicdn.com/t/font_1031158_u69w8yhxdu.woff?t=1630033759944") format("woff"), url("//at.alicdn.com/t/font_1031158_u69w8yhxdu.ttf?t=1630033759944") format("truetype"); }
</style></defs><path d="M791.552 508.586667s-39.0144 7.099733-65.9456 6.587733c-26.965333-0.512-7.543467-24.439467-7.543467-24.439467 51.9168-73.6256 118.920533-98.440533 141.277867-106.666666 22.3232-8.260267 17.237333 12.4928 17.237333 12.4928s-10.1376 41.437867-28.910933 76.629333C828.859733 508.381867 791.552 508.586667 791.552 508.586667zM800.290133 252.074667c2.6624-1.706667 24.814933 33.518933 39.3216 57.207466-3.959467 3.652267-18.158933 16.145067-26.999466 16.6912-47.616 0.853333-12.4928-76.151467-12.4928-76.151466h0.034133c0.136533 0.750933 0.170667 1.536 0.136533 2.2528z" fill="#C9D6DF" p-id="8208"></path><path d="M744.1408 392.738133c-0.546133-16.9984 10.5472-65.2288 19.012267-99.7376 8.4992-34.542933 27.101867-62.0544 27.101866-62.0544 5.4272 7.168 9.250133 13.687467 9.9328 18.875734h-0.034133s-35.1232 77.038933 12.4928 76.151466c8.8064-0.580267 23.04-13.038933 26.999467-16.6912 7.2704 11.912533 12.5952 20.923733 12.5952 20.923734l0.238933 0.6144c-2.525867 0.8192-4.232533 1.9456-4.232533 1.9456-36.078933 22.7328-50.3808 25.941333-50.3808 25.941333-24.302933 9.728-41.437867 22.152533-53.725867 34.030933z" fill="#52616B" p-id="8209"></path><path d="M737.9968 174.626133c10.888533 13.550933 37.5808 37.137067 52.258133 56.32 0 0-18.602667 27.511467-27.101866 62.0544-8.465067 34.5088-19.524267 82.705067-19.012267 99.7376a156.904107 156.904107 0 0 0-12.0832 13.277867c-13.482667 16.827733-53.486933 74.274133-70.724267 90.624 0 0 9.489067-42.018133 17.271467-85.777067 5.12-28.5696 9.489067-57.856 10.103467-76.6976 1.501867-47.650133-32.221867-20.548267-32.221867-20.548266s-28.0576 17.749333-80.110933 50.5856c-28.501333 17.954133-46.933333 10.410667-57.719467-0.136534-8.9088-8.669867-12.629333-19.387733-12.629333-19.387733h-0.034134l-0.477866-0.3072c7.304533-12.5952 10.410667-25.326933 10.410666-25.326933 3.413333 0.170667 6.826667 0.3072 10.103467 0.443733 14.848 0.580267 27.204267 0.9216 27.204267 0.9216s167.492267-6.4512 148.036266-134.314667c2.7648-25.088 13.1072-25.770667 13.1072-25.770666s8.0896-5.085867 23.620267 14.301866z" fill="#1E2022" p-id="8210"></path><path d="M575.6928 615.594667s-20.650667 1.3312-6.9632-13.141334c0 0 31.4368-31.505067 45.738667-34.7136 14.336-3.208533 57.9584-1.536 70.621866 2.1504 12.5952 3.6864 18.944 5.563733-5.085866 20.6848-24.029867 15.189333-33.757867 27.136-44.066134 27.818667-10.308267 0.7168-60.245333-2.798933-60.245333-2.798933zM556.7488 661.469867c9.9328 2.901333 14.848 4.369067-3.959467 16.213333s-26.385067 21.1968-34.440533 21.742933c-8.0896 0.546133-47.104-2.218667-47.104-2.218666s-16.145067 1.058133-5.4272-10.24c0 0 24.541867-24.610133 35.771733-27.136 11.195733-2.594133 45.2608-1.262933 55.159467 1.6384z" fill="#C9D6DF" p-id="8211"></path><path d="M506.026667 344.610133s3.720533 10.717867 12.629333 19.387734c-8.9088-8.669867-12.663467-19.387733-12.629333-19.387734z" fill="#52616B" p-id="8212"></path><path d="M455.133867 533.742933l-4.266667-30.139733-16.110933-4.334933-33.928534 34.474666h54.306134z m43.9296 14.609067l-20.036267-98.167467-25.122133 31.0272 18.602666 93.422934 26.555734-26.282667z m6.929066-203.741867s3.754667 10.717867 12.663467 19.387734c10.820267 10.5472 29.218133 18.090667 57.719467 0.136533 52.087467-32.836267 80.110933-50.5856 80.110933-50.5856s33.723733-27.101867 32.221867 20.548267c-0.648533 18.8416-4.983467 48.128-10.103467 76.6976l-77.1072 71.714133c-43.4176 39.082667-78.848 73.1136-78.848 73.1136s-2.7648 1.979733-6.656 6.075733l-0.068267 0.034134-165.9904 132.061866-0.273066-0.136533 30.276266-63.7952c20.6848-42.632533-18.090667-24.098133-18.090666-24.098133s-32.426667 11.127467-29.252267-9.489067c0.375467-2.628267 1.3312-5.768533 3.037867-9.489067l9.181866-16.827733 9.1136-16.759467 4.642134-7.953066 11.776-20.1728 13.6192-23.313067c0.3072-0.341333 0.546133-0.682667 0.785066-1.092267 0.341333-0.546133 0.6144-1.058133 0.750934-1.6384l14.506666-24.849066h0.034134l9.8304-16.861867c0.955733-0.750933 1.809067-1.706667 2.491733-2.798933 0.7168-1.1264 1.1264-2.321067 1.262933-3.652267l12.424534-21.265067 10.171733-17.442133c0.9216-0.785067 1.809067-1.706667 2.491733-2.798933 0.7168-1.1264 1.1264-2.3552 1.262934-3.6864l7.406933-12.6976s1.024-2.525867 2.798933-5.973334c0.512-0.9216 1.024-1.9456 1.6384-2.9696 0.4096-0.682667 0.785067-1.399467 1.2288-2.082133 0.443733-0.7168 0.887467-1.4336 1.399467-2.1504 0.682667-1.058133 1.467733-2.116267 2.286933-3.1744 0.546133-0.648533 1.092267-1.3312 1.672534-1.979733 2.525867-2.833067 5.4272-5.085867 8.4992-5.870934h0.034133l1.4336 0.170667c17.646933 1.1264 29.627733-11.707733 37.137067-24.644267l0.477866 0.3072z m71.168 136.123734c-41.198933 26.692267-76.3904 24.541867-76.3904 24.541866l1.3312 20.650667h0.034134c36.181333-8.9088 73.864533-44.100267 75.025066-45.192533z" fill="#52616B" p-id="8213"></path><path d="M500.770133 505.309867s35.191467 2.116267 76.3904-24.541867c-1.160533 1.092267-38.877867 36.283733-75.025066 45.226667l-1.365334-20.6848z" fill="#1E2022" p-id="8214"></path><path d="M500.770133 505.309867l1.365334 20.650666h-0.034134z" fill="#1E2022" p-id="8215"></path><path d="M526.062933 319.3856c-3.310933-0.1024-6.690133-0.238933-10.103466-0.4096-18.056533-0.7168-36.488533-1.7408-39.560534-2.628267-24.576-7.236267-37.649067 16.964267-38.331733 18.295467l22.1184-48.981333s3.822933-43.246933 29.764267-24.541867c8.6016 6.212267 10.9568 10.581333 10.9568 10.581333l25.156266 47.684267z" fill="#C9D6DF" p-id="8216"></path><path d="M501.179733 715.537067c-0.4096 0.512-0.785067 1.1264-1.194666 1.877333 0.341333-0.750933 0.750933-1.399467 1.194666-1.877333zM499.985067 717.380267c-0.375467 0.7168-0.7168 1.570133-1.058134 2.491733 0.3072-0.9216 0.682667-1.774933 1.058134-2.491733z" fill="#F9F7F7" p-id="8217"></path><path d="M479.0272 450.184533l20.036267 98.167467-26.555734 26.282667-18.602666-93.422934zM678.638933 410.8288c-7.7824 43.758933-17.271467 85.777067-17.271466 85.777067-1.058133 1.024-2.048 1.911467-2.935467 2.56-11.434667 8.8064-12.3904 7.68-48.093867 30.344533-48.674133 30.890667-73.045333 46.318933-93.832533 65.058133-11.229867 10.0352-18.670933 18.158933-24.200533 24.9856 2.048-30.4128 15.325867-49.015467 23.620266-57.787733l0.068267-0.034133c3.8912-4.130133 6.656-6.075733 6.656-6.075734s35.4304-33.9968 78.848-73.1136l77.141333-71.714133z" fill="#1E2022" p-id="8218"></path><path d="M482.816 746.461867c0.750933-0.682667 1.536-1.365333 2.218667-2.013867-0.7168 0.648533-1.467733 1.365333-2.218667 2.013867zM474.0096 753.7664c0.887467-0.682667 1.774933-1.399467 2.628267-2.082133-0.853333 0.682667-1.706667 1.365333-2.628267 2.082133zM471.278933 755.848533c0.9216-0.682667 1.8432-1.399467 2.730667-2.082133-0.887467 0.682667-1.774933 1.399467-2.730667 2.082133zM465.681067 759.944533c0.955733-0.648533 1.911467-1.365333 2.833066-2.013866-0.955733 0.648533-1.877333 1.365333-2.833066 2.013866z" fill="#F9F7F7" p-id="8219"></path><path d="M458.4448 374.647467zM450.8672 503.6032l4.266667 30.139733h-54.306134l33.928534-34.474666zM454.485333 379.8016zM452.642133 382.634667c0.136533-0.238933 0.273067-0.477867 0.443734-0.682667-0.443733 0.682667-0.8192 1.399467-1.2288 2.082133 0.273067-0.443733 0.546133-0.9216 0.785066-1.399466z" fill="#1E2022" p-id="8220"></path><path d="M515.959467 319.010133s-3.106133 12.6976-10.410667 25.326934c-7.509333 12.936533-19.490133 25.8048-37.137067 24.644266l-1.4336-0.170666h-0.034133c-3.072 0.750933-5.9392 3.037867-8.4992 5.870933-0.6144 0.648533-1.1264 1.297067-1.672533 1.979733-0.8192 1.024-1.604267 2.082133-2.286934 3.1744-0.512 0.7168-0.955733 1.4336-1.399466 2.1504-0.170667 0.238933-0.3072 0.477867-0.443734 0.682667l-0.443733-0.273067c-9.386667-2.184533-17.169067-2.594133-23.517867-2.013866-3.413333-5.666133-6.621867-11.298133-7.850666-16.4864 5.5296-9.352533 11.264-19.080533 17.169066-29.149867l0.034134-0.068267c0.682667-1.3312 13.755733-25.531733 38.331733-18.295466 3.072 0.887467 21.504 1.877333 39.594667 2.628266z" fill="#C9D6DF" p-id="8221"></path><path d="M452.642133 382.634667c-0.273067 0.477867-0.546133 0.9216-0.785066 1.399466-0.6144 1.024-1.1264 2.013867-1.6384 2.9696-1.774933 3.447467-2.798933 5.973333-2.798934 5.973334l-7.406933 12.6976c0.7168-6.792533-5.632-16.042667-11.298133-25.361067 6.3488-0.580267 14.1312-0.170667 23.517866 2.013867l0.4096 0.3072z" fill="#C9D6DF" p-id="8222"></path><path d="M451.857067 384.034133c-0.6144 1.024-1.1264 2.013867-1.6384 2.9696 0.512-0.9216 1.024-1.911467 1.6384-2.9696z" fill="#1E2022" p-id="8223"></path><path d="M438.0672 409.019733l-1.8432 3.1744c-11.8784 9.898667-40.5504-2.798933-40.5504-2.798933l-0.989867 0.273067c-0.136533-0.443733-0.238933-0.8192-0.3072-1.2288 3.7888-6.314667 7.68-12.834133 11.6736-19.592534 1.911467-1.809067 8.9088-7.338667 22.6304-8.4992 5.700267 9.3184 12.049067 18.568533 11.298134 25.361067l-1.911467 3.310933z" fill="#C9D6DF" p-id="8224"></path><path d="M438.0672 409.019733l1.9456-3.310933c-0.136533 1.3312-0.546133 2.56-1.262933 3.6864-0.238933-0.136533-0.443733-0.238933-0.682667-0.375467z" fill="#3F72AF" p-id="8225"></path><path d="M438.0672 409.019733c0.238933 0.136533 0.443733 0.238933 0.648533 0.375467-0.682667 1.092267-1.570133 1.979733-2.491733 2.798933l1.8432-3.1744z" fill="#3F72AF" p-id="8226"></path><path d="M436.258133 412.194133l-10.171733 17.442134-0.9216-0.546134c-8.123733-1.467733-15.223467-1.6384-21.230933-1.092266-3.857067-6.212267-7.68-12.561067-9.216-18.3296l0.989866-0.273067c-0.034133 0 28.672 12.6976 40.5504 2.798933z" fill="#C9D6DF" p-id="8227"></path><path d="M426.0864 429.636267l-12.424533 21.265066c0.648533-6.144-4.539733-14.404267-9.762134-22.903466 6.007467-0.546133 13.1072-0.375467 21.230934 1.092266l0.955733 0.546134zM420.829867 363.895467c1.2288 5.154133 4.437333 10.820267 7.850666 16.4864-13.7216 1.1264-20.718933 6.690133-22.6304 8.4992 4.778667-8.055467 9.693867-16.384 14.779734-24.9856zM453.9392 728.4736c8.533333 2.491733 12.765867 3.754667-3.413333 13.960533-16.213333 10.205867-22.7328 18.295467-29.730134 18.7392-6.9632 0.477867-40.618667-1.911467-40.618666-1.911466s-13.892267 0.887467-4.676267-8.874667c0 0 21.1968-21.230933 30.890667-23.381333 9.6256-2.116267 39.048533-1.024 47.547733 1.467733z" fill="#C9D6DF" p-id="8228"></path><path d="M411.716267 454.178133l1.9456-3.310933c-0.136533 1.3312-0.546133 2.525867-1.262934 3.652267-0.238933-0.1024-0.443733-0.2048-0.682666-0.341334z" fill="#3F72AF" p-id="8229"></path><path d="M411.716267 454.178133c0.238933 0.136533 0.443733 0.238933 0.648533 0.375467-0.682667 1.092267-1.536 2.013867-2.491733 2.798933l1.8432-3.1744z" fill="#3F72AF" p-id="8230"></path><path d="M400.042667 474.2144l-14.506667 24.849067c2.2528-6.109867-3.037867-14.848-8.6016-23.927467 6.656-1.058133 14.404267-1.570133 23.108267-0.9216z" fill="#C9D6DF" p-id="8231"></path><path d="M384.648533 500.6336l0.887467-1.570133a7.850667 7.850667 0 0 1-0.750933 1.6384 0.259413 0.259413 0 0 0-0.136534-0.068267z" fill="#3F72AF" p-id="8232"></path><path d="M384.648533 500.6336c0.034133 0 0.1024 0.034133 0.136534 0.068267-0.273067 0.4096-0.512 0.750933-0.785067 1.092266l0.648533-1.160533z" fill="#3F72AF" p-id="8233"></path><path d="M378.129067 435.5072c5.188267-8.6016 10.615467-17.6128 16.2816-27.101867 0.068267 0.4096 0.170667 0.785067 0.3072 1.2288 1.536 5.768533 5.358933 12.117333 9.216 18.3296-16.452267 1.399467-24.849067 8.0896-24.849067 8.0896l-0.955733-0.546133z" fill="#C9D6DF" p-id="8234"></path><path d="M411.716267 454.178133l-1.8432 3.1744c-11.8784 9.898667-40.516267-2.798933-40.516267-2.798933l-2.013867-1.194667c3.4816-5.7344 7.099733-11.6736 10.786134-17.851733l0.9216 0.580267s8.430933-6.690133 24.849066-8.0896c5.2224 8.4992 10.410667 16.725333 9.762134 22.903466l-1.9456 3.2768z" fill="#C9D6DF" p-id="8235"></path><path d="M376.9344 475.170133c-4.4032-7.0656-8.9088-14.301867-10.171733-20.753066l0.6144-1.024 2.013866 1.194666s28.637867 12.663467 40.516267 2.798934l-9.8304 16.861866h-0.034133c-8.704-0.682667-16.452267-0.170667-23.108267 0.9216zM370.3808 525.141333l-11.776 20.1728-1.4336-0.8192c3.2768-5.0176 0.034133-12.253867-4.608-20.138666 5.085867-0.136533 10.820267-0.034133 17.3056 0.512l0.512 0.273066z" fill="#C9D6DF" p-id="8236"></path><path d="M353.962667 553.233067l-9.1136 16.759466-0.068267-0.034133c-9.8304-0.785067-18.2272-0.648533-25.361067-0.068267-2.901333-8.328533-5.495467-17.442133-6.3488-25.361066l1.058134-0.1024s33.416533 14.779733 43.008 0l1.4336 0.8192-4.608 7.9872zM376.9344 475.170133c-16.9984 2.7648-26.692267 9.216-26.692267 9.216l-1.365333-0.8192c5.597867-9.079467 11.537067-18.773333 17.851733-29.149866 1.262933 6.417067 5.802667 13.687467 10.205867 20.753066z" fill="#C9D6DF" p-id="8237"></path><path d="M384.648533 500.6336l-0.648533 1.160533c-10.5472 12.9024-42.222933-1.092267-42.222933-1.092266l-1.8432 0.580266c-0.273067-0.750933-0.477867-1.501867-0.648534-2.184533 3.072-4.949333 6.2464-10.1376 9.591467-15.530667l1.365333 0.8192s9.693867-6.4512 26.692267-9.216c5.597867 9.079467 10.888533 17.8176 8.6016 23.927467l-0.887467 1.536zM344.849067 570.026667l-9.181867 16.827733c-1.706667 3.720533-2.6624 6.8608-3.037867 9.489067l-2.389333-0.4096s-5.870933-11.8784-10.820267-26.0096c7.133867-0.6144 15.530667-0.7168 25.361067 0.068266l0.068267 0.034134z" fill="#C9D6DF" p-id="8238"></path><path d="M341.742933 500.701867s31.675733 13.994667 42.222934 1.092266l-13.6192 23.313067-0.512-0.3072c-6.485333-0.546133-12.219733-0.648533-17.3056-0.512-4.471467-7.543467-10.171733-15.701333-12.629334-23.074133l1.8432-0.512z" fill="#C9D6DF" p-id="8239"></path><path d="M318.293333 532.411733c6.314667-9.9328 13.277867-20.957867 20.992-33.348266 0.170667 0.682667 0.375467 1.4336 0.648534 2.184533 2.4576 7.338667 8.192 15.496533 12.629333 23.074133-24.917333 0.750933-33.928533 8.2944-33.928533 8.2944l-0.341334-0.2048zM301.738667 810.530133s-10.9568 0.7168-3.652267-6.9632c0 0 16.622933-16.6912 24.234667-18.397866 7.611733-1.706667 30.72-0.785067 37.410133 1.160533 6.724267 1.9456 10.0352 2.935467-2.696533 10.9568-12.6976 8.055467-17.851733 14.370133-23.313067 14.7456-5.495467 0.375467-31.982933-1.501867-31.982933-1.501867z" fill="#C9D6DF" p-id="8240"></path><path d="M349.969067 693.828267l165.9904-132.061867c-8.2944 8.772267-21.572267 27.374933-23.620267 57.787733-15.5648 19.285333-15.6672 28.637867-40.3456 44.919467-25.4976 16.7936-41.540267 17.5104-78.4384 43.656533-15.428267 10.9568-23.620267 18.602667-33.723733 27.136-4.778667 4.027733-10.069333 8.2944-15.906134 12.6976l25.8048-54.272 0.238934 0.136534z" fill="#1E2022" p-id="8241"></path><path d="M319.419733 569.924267c4.949333 14.1312 10.820267 26.0096 10.820267 26.0096-20.650667-8.840533-31.266133-15.530667-36.181333-20.514134 4.8128-1.8432 13.141333-4.4032 25.361066-5.495466zM357.1712 544.4608c-9.6256 14.779733-43.008 0-43.008 0l-1.058133 0.1024c-0.170667-1.194667-0.273067-2.389333-0.273067-3.515733 1.7408-2.7648 3.584-5.666133 5.495467-8.6016l0.341333 0.2048s9.0112-7.509333 33.928533-8.2944c4.608 7.850667 7.816533 15.086933 4.573867 20.104533z" fill="#C9D6DF" p-id="8242"></path><path d="M291.874133 572.8256c5.973333-8.840533 12.868267-19.319467 20.923734-31.778133 0 1.1264 0.1024 2.321067 0.273066 3.515733 0.853333 7.918933 3.447467 17.032533 6.3488 25.361067-12.219733 1.092267-20.548267 3.652267-25.361066 5.5296-0.9216-0.955733-1.604267-1.809067-2.184534-2.628267zM275.6608 826.606933c4.4032 1.262933 6.587733 1.9456-1.7408 7.202134h-0.034133c-8.328533 5.256533-11.707733 9.4208-15.2576 9.659733-3.584 0.238933-20.923733-0.955733-20.923734-0.955733s-7.202133 0.477867-2.423466-4.573867c0 0 10.922667-10.9568 15.872-12.0832 4.983467-1.1264 20.138667-0.546133 24.507733 0.750933z" fill="#C9D6DF" p-id="8243"></path><path d="M300.407467 672.768s1.058133-0.648533-2.321067 5.4272l-111.957333 70.007467c-44.066133 27.818667-69.2224 8.260267-69.2224 8.260266l-0.2048-0.068266c0.648533-1.774933 1.399467-3.2768 2.286933-4.369067 0 0 95.505067-75.605333 121.856-108.509867l0.3072 0.238934c-2.013867 4.9152-0.273067 9.898667 16.1792 8.8064l24.951467-3.8912c-0.034133 0 37.0688-11.537067 18.1248 24.098133z" fill="#F0F5F9" p-id="8244"></path><path d="M298.052267 678.1952c3.3792-6.075733 2.321067-5.4272 2.321066-5.4272 18.978133-35.6352-18.1248-24.098133-18.1248-24.098133l-24.951466 3.8912c-16.452267 1.058133-18.193067-3.8912-16.1792-8.8064l-0.3072-0.238934c1.877333-2.286933 3.345067-4.437333 4.471466-6.2464 9.3184-15.36 15.598933-18.500267 46.592-64.443733 0.580267 0.8192 1.262933 1.706667 2.184534 2.628267 4.881067 4.949333 15.496533 11.639467 36.181333 20.514133l2.389333 0.4096c-3.1744 20.5824 29.252267 9.489067 29.252267 9.489067s38.8096-18.5344 18.090667 24.098133l-30.276267 63.7952-25.8048 54.272c-22.1184 16.896-52.224 36.590933-92.2624 55.534933 0 0-4.437333 1.672533-11.434667 4.1984l-0.375466-1.194666s18.978133-35.669333 51.780266-85.981867c16.042667-24.610133 23.278933-36.5568 26.453334-42.3936z" fill="#C9D6DF" p-id="8245"></path><path d="M116.394667 797.730133c-2.525867-15.325867-2.901333-32.256 0.3072-41.335466l0.2048 0.068266s25.156267 19.5584 69.2224-8.260266l111.957333-70.007467c-3.208533 5.8368-10.410667 17.783467-26.453333 42.325333-32.802133 50.312533-51.780267 85.981867-51.780267 85.981867l0.375467 1.194667c-25.2928 9.079467-84.309333 29.047467-92.8768 20.753066-4.7104-4.5056-8.704-17.032533-10.9568-30.72z" fill="#C9D6DF" p-id="8246"></path><path d="M380.177067 759.296s33.6896 2.3552 40.618666 1.911467c6.997333-0.443733 13.5168-8.533333 29.730134-18.7392 16.213333-10.205867 11.946667-11.4688 3.413333-13.960534s-37.922133-3.584-47.581867-1.467733c-9.693867 2.1504-30.890667 23.381333-30.890666 23.381333-9.181867 9.762133 4.7104 8.874667 4.7104 8.874667z m91.0336-62.122667s39.048533 2.7648 47.104 2.218667c8.055467-0.546133 15.633067-9.898667 34.440533-21.742933s13.892267-13.312 3.959467-16.213334c-9.898667-2.901333-43.963733-4.232533-55.159467-1.706666-11.229867 2.525867-35.771733 27.136-35.771733 27.136-10.683733 11.3664 5.4272 10.308267 5.4272 10.308266z m104.482133-81.578666s49.902933 3.4816 60.245333 2.833066c10.308267-0.648533 20.036267-12.629333 44.066134-27.818666 24.029867-15.1552 17.7152-16.9984 5.085866-20.6848-12.629333-3.6864-56.251733-5.358933-70.621866-2.1504-14.301867 3.208533-45.738667 34.7136-45.738667 34.7136-13.687467 14.4384 6.9632 13.1072 6.9632 13.1072z m-337.988267 226.884266s17.339733 1.194667 20.923734 0.955734c3.549867-0.238933 6.9632-4.4032 15.2576-9.659734h0.034133c8.328533-5.256533 6.109867-5.9392 1.7408-7.202133-4.369067-1.297067-19.524267-1.877333-24.507733-0.750933-4.949333 1.1264-15.872 12.0832-15.872 12.0832-4.778667 5.051733 2.423467 4.573867 2.423466 4.573866z m60.381867-38.912c-7.2704 7.68 3.652267 6.9632 3.652267 6.9632s26.487467 1.877333 31.9488 1.501867c5.461333-0.375467 10.615467-6.690133 23.313066-14.7456 12.731733-8.021333 9.4208-9.0112 2.696534-10.9568-6.690133-1.979733-29.764267-2.8672-37.410134-1.160533-7.543467 1.706667-24.200533 18.397867-24.200533 18.397866z m495.342933-261.12s-23.586133-14.301867-36.0448 22.7328c-1.706667 6.929067-99.566933 74.513067-122.504533 71.4752-10.308267 0.648533-17.271467-12.458667-24.029867 15.189334-6.792533 27.613867-87.517867 66.8672-93.832533 65.058133-4.5056-1.3312-11.264-7.031467-15.837867-1.3312-0.443733 0.512-0.8192 1.1264-1.194666 1.877333-0.375467 0.682667-0.7168 1.570133-1.058134 2.491734-0.8192 2.389333-1.501867 5.5296-1.9456 9.591466-0.8192 3.4816-5.393067 8.9088-11.946666 14.984534-0.682667 0.648533-1.467733 1.3312-2.218667 2.013866-1.9456 1.706667-3.9936 3.447467-6.144 5.188267-0.853333 0.682667-1.7408 1.399467-2.628267 2.082133s-1.809067 1.399467-2.730666 2.082134c-0.9216 0.648533-1.8432 1.365333-2.798934 2.048-0.9216 0.648533-1.877333 1.365333-2.833066 2.013866-18.295467 12.9024-38.912 23.2448-44.782934 17.578667 0 0-12.629333-3.720533-16.042666 10.103467-3.3792 13.789867-51.438933 44.1344-64.1024 40.413866 0 0-29.2864-4.881067-26.350934 10.786134l-3.9936 2.525866s-36.078933 22.766933-52.701866 21.572267c-16.622933-1.160533-21.265067-9.9328-21.265067-9.9328s-9.728 11.946667-20.036267 12.629333c-55.637333 5.9392-75.195733-10.922667-75.195733-10.922666s-40.6528-26.282667-24.814933-57.0368c2.2528 13.7216 6.2464 26.2144 10.9568 30.754133 8.567467 8.2944 67.584-11.6736 92.8768-20.753067 7.031467-2.525867 11.434667-4.1984 11.434666-4.1984 40.072533-18.944 70.144-38.638933 92.2624-55.534933 5.8368-4.437333 11.127467-8.669867 15.906134-12.6976 10.069333-8.533333 18.261333-16.1792 33.723733-27.136 36.898133-26.146133 52.9408-26.862933 78.4384-43.656533 24.6784-16.2816 24.7808-25.634133 40.3456-44.919467 5.5296-6.826667 12.970667-14.9504 24.200533-24.9856 20.7872-18.7392 45.1584-34.167467 93.832534-65.058133 35.703467-22.664533 36.625067-21.538133 48.093866-30.344534 0.853333-0.648533 1.877333-1.536 2.935467-2.56 17.237333-16.349867 57.2416-73.762133 70.724267-90.624 3.3792-4.1984 7.338667-8.669867 12.0832-13.277866 12.288-11.8784 29.422933-24.302933 53.691733-34.030934 0 0 14.301867-3.242667 50.3808-25.941333 0 0 1.706667-1.092267 4.232533-1.9456 6.0416-2.082133 16.827733-2.8672 19.3536 16.247467l36.215467 17.988266s12.629333 3.6864 9.898667 28.7744c-2.7648 25.088-1.536 47.684267-42.666667 91.136-41.198933 43.554133-81.885867 57.5488-81.885867 57.5488z m-67.822933-27.272533c26.965333 0.512 65.9456-6.587733 65.9456-6.587733s37.307733-0.2048 56.1152-35.396267c18.773333-35.191467 28.910933-76.629333 28.910933-76.629333s5.085867-20.718933-17.237333-12.4928c-22.357333 8.260267-89.361067 33.041067-141.277867 106.666666 0 0.034133-19.387733 23.9616 7.543467 24.439467z" fill="#F0F5F9" p-id="8247"></path></svg>